<?xml version="1.0" standalone="no"?>
<!DOCTYPE svg PUBLIC "-//W3C//DTD SVG 20010904//EN"
 "http://www.w3.org/TR/2001/REC-SVG-20010904/DTD/svg10.dtd">
<svg version="1.0" xmlns="http://www.w3.org/2000/svg"
 width="200.000000pt" height="200.000000pt" viewBox="0 0 200.000000 200.000000"
 preserveAspectRatio="xMidYMid meet">
<metadata>
Created by potrace 1.11, written by Peter Selinger 2001-2013
</metadata>
<g transform="translate(0.000000,200.000000) scale(0.100000,-0.100000)"
fill="#000000" stroke="none">
<path d="M1000 1854 c-86 -23 -158 -63 -220 -123 -73 -71 -120 -146 -154 -244
-54 -156 -53 -252 4 -406 16 -46 25 -84 20 -95 -19 -55 31 -114 127 -148 56
-20 61 -24 46 -36 -60 -44 -82 -61 -120 -96 -24 -21 -45 -37 -48 -34 -3 2 0
20 5 39 33 111 -15 222 -101 235 -36 6 -37 7 -28 37 42 147 24 250 -47 269
-82 22 -137 -62 -149 -229 -2 -26 -4 -54 -4 -60 -2 -21 -16 -15 -33 15 -31 50
-107 125 -145 143 -67 31 -125 1 -125 -64 0 -45 54 -148 93 -178 35 -26 35
-31 8 -68 -17 -23 -20 -37 -14 -68 6 -35 11 -89 14 -139 2 -34 56 -82 107 -95
30 -8 48 -18 51 -30 3 -10 23 -26 44 -36 21 -10 39 -25 39 -34 0 -24 68 -98
104 -113 42 -18 126 -11 182 14 26 11 48 20 50 20 2 0 2 -29 -1 -64 l-4 -63
57 -17 c157 -45 399 -54 598 -21 38 7 42 10 52 49 6 22 25 81 43 131 49 141
46 270 -10 358 -18 29 -18 30 6 72 14 25 33 45 47 49 42 10 144 86 166 122 11
20 21 50 22 68 1 35 -24 91 -48 104 -13 8 -14 15 -4 53 7 24 12 82 12 129 0
74 -3 99 -15 163 -4 21 126 9 209 -18 88 -29 132 -32 141 -9 8 21 -33 61 -70
70 -17 3 -38 10 -47 15 -8 5 -42 18 -75 29 -253 87 -239 80 -274 127 -51 66
-151 136 -234 164 -86 28 -198 33 -277 13z"/>
</g>
</svg>
